<region> lovel=1 hivel=3 amp_velcurve_3=1 sample=../samples/_nsmr/pre_roll/kd20punch/snare_off/opn/kd20punch_p50_opn_b001.wav
<region> lovel=4 hivel=7 amp_velcurve_7=1 sample=../samples/_nsmr/pre_roll/kd20punch/snare_off/opn/kd20punch_p50_opn_b002.wav
<region> lovel=8 hivel=11 amp_velcurve_11=1 sample=../samples/_nsmr/pre_roll/kd20punch/snare_off/opn/kd20punch_p50_opn_b003.wav
<region> lovel=12 hivel=15 amp_velcurve_15=1 sample=../samples/_nsmr/pre_roll/kd20punch/snare_off/opn/kd20punch_p50_opn_b004.wav
<region> lovel=16 hivel=19 amp_velcurve_19=1 sample=../samples/_nsmr/pre_roll/kd20punch/snare_off/opn/kd20punch_p50_opn_b005.wav
<region> lovel=20 hivel=23 amp_velcurve_23=1 sample=../samples/_nsmr/pre_roll/kd20punch/snare_off/opn/kd20punch_p50_opn_b006.wav
<region> lovel=24 hivel=27 amp_velcurve_27=1 sample=../samples/_nsmr/pre_roll/kd20punch/snare_off/opn/kd20punch_p50_opn_b007.wav
<region> lovel=28 hivel=31 amp_velcurve_31=1 sample=../samples/_nsmr/pre_roll/kd20punch/snare_off/opn/kd20punch_p50_opn_b008.wav
<region> lovel=32 hivel=35 amp_velcurve_35=1 sample=../samples/_nsmr/pre_roll/kd20punch/snare_off/opn/kd20punch_p50_opn_b009.wav
<region> lovel=36 hivel=39 amp_velcurve_39=1 sample=../samples/_nsmr/pre_roll/kd20punch/snare_off/opn/kd20punch_p50_opn_b010.wav
<region> lovel=40 hivel=43 amp_velcurve_43=1 sample=../samples/_nsmr/pre_roll/kd20punch/snare_off/opn/kd20punch_p50_opn_b011.wav
<region> lovel=44 hivel=47 amp_velcurve_47=1 sample=../samples/_nsmr/pre_roll/kd20punch/snare_off/opn/kd20punch_p50_opn_b012.wav
<region> lovel=48 hivel=51 amp_velcurve_51=1 sample=../samples/_nsmr/pre_roll/kd20punch/snare_off/opn/kd20punch_p50_opn_b013.wav
<region> lovel=52 hivel=55 amp_velcurve_55=1 sample=../samples/_nsmr/pre_roll/kd20punch/snare_off/opn/kd20punch_p50_opn_b014.wav
<region> lovel=56 hivel=59 amp_velcurve_59=1 sample=../samples/_nsmr/pre_roll/kd20punch/snare_off/opn/kd20punch_p50_opn_b015.wav
<region> lovel=60 hivel=63 amp_velcurve_63=1 sample=../samples/_nsmr/pre_roll/kd20punch/snare_off/opn/kd20punch_p50_opn_b016.wav
<region> lovel=64 hivel=67 amp_velcurve_67=1 sample=../samples/_nsmr/pre_roll/kd20punch/snare_off/opn/kd20punch_p50_opn_b017.wav
<region> lovel=68 hivel=71 amp_velcurve_71=1 sample=../samples/_nsmr/pre_roll/kd20punch/snare_off/opn/kd20punch_p50_opn_b018.wav
<region> lovel=72 hivel=75 amp_velcurve_75=1 sample=../samples/_nsmr/pre_roll/kd20punch/snare_off/opn/kd20punch_p50_opn_b019.wav
<region> lovel=76 hivel=79 amp_velcurve_79=1 sample=../samples/_nsmr/pre_roll/kd20punch/snare_off/opn/kd20punch_p50_opn_b020.wav
<region> lovel=80 hivel=83 amp_velcurve_83=1 sample=../samples/_nsmr/pre_roll/kd20punch/snare_off/opn/kd20punch_p50_opn_b021.wav
<region> lovel=84 hivel=87 amp_velcurve_87=1 sample=../samples/_nsmr/pre_roll/kd20punch/snare_off/opn/kd20punch_p50_opn_b022.wav
<region> lovel=88 hivel=91 amp_velcurve_91=1 sample=../samples/_nsmr/pre_roll/kd20punch/snare_off/opn/kd20punch_p50_opn_b023.wav
<region> lovel=92 hivel=95 amp_velcurve_95=1 sample=../samples/_nsmr/pre_roll/kd20punch/snare_off/opn/kd20punch_p50_opn_b024.wav
<region> lovel=96 hivel=99 amp_velcurve_99=1 sample=../samples/_nsmr/pre_roll/kd20punch/snare_off/opn/kd20punch_p50_opn_b025.wav
<region> lovel=100 hivel=103 amp_velcurve_103=1 sample=../samples/_nsmr/pre_roll/kd20punch/snare_off/opn/kd20punch_p50_opn_b026.wav
<region> lovel=104 hivel=107 amp_velcurve_107=1 sample=../samples/_nsmr/pre_roll/kd20punch/snare_off/opn/kd20punch_p50_opn_b027.wav
<region> lovel=108 hivel=111 amp_velcurve_111=1 sample=../samples/_nsmr/pre_roll/kd20punch/snare_off/opn/kd20punch_p50_opn_b028.wav
<region> lovel=112 hivel=115 amp_velcurve_115=1 sample=../samples/_nsmr/pre_roll/kd20punch/snare_off/opn/kd20punch_p50_opn_b029.wav
<region> lovel=116 hivel=119 amp_velcurve_119=1 sample=../samples/_nsmr/pre_roll/kd20punch/snare_off/opn/kd20punch_p50_opn_b030.wav
<region> lovel=120 hivel=123 amp_velcurve_123=1 sample=../samples/_nsmr/pre_roll/kd20punch/snare_off/opn/kd20punch_p50_opn_b031.wav
<region> lovel=124 hivel=127 amp_velcurve_127=1 sample=../samples/_nsmr/pre_roll/kd20punch/snare_off/opn/kd20punch_p50_opn_b032.wav
